<svg width="305" height="86" viewBox="0 0 305 86" fill="none" xmlns="http://www.w3.org/2000/svg">
<path d="M1.78986 35.6768H9.83185C10.7181 35.6768 11.5027 35.8512 12.1856 36.1999C12.8685 36.5341 13.3988 37.0208 13.7766 37.6601C14.1543 38.2848 14.3432 39.004 14.3432 39.8177V41.8445C14.3432 42.6872 14.1471 43.4355 13.7548 44.0893C13.3625 44.7286 12.8104 45.2299 12.0984 45.5931C11.401 45.9418 10.5874 46.1161 9.65749 46.1161H4.79743V50.9326H1.78986V35.6768ZM9.61391 43.5009C10.1224 43.5009 10.5365 43.341 10.8562 43.0214C11.1758 42.6872 11.3356 42.2513 11.3356 41.7138V39.9484C11.3356 39.4399 11.1903 39.0404 10.8998 38.7498C10.6237 38.4447 10.2532 38.2921 9.78826 38.2921H4.79743V43.5009H9.61391ZM18.2954 35.6768H26.4028C27.7249 35.6768 28.7856 36.0328 29.5847 36.7447C30.3983 37.4567 30.8052 38.3938 30.8052 39.5562V41.0817C30.8052 41.8373 30.5872 42.4983 30.1513 43.065C29.73 43.6171 29.1125 44.0385 28.2988 44.329V44.3726C28.7638 44.6777 29.1125 45.0264 29.345 45.4187C29.592 45.811 29.8317 46.3559 30.0642 47.0533L31.2846 50.9326H28.1681L27.013 47.3148C26.8241 46.6901 26.5626 46.2251 26.2284 45.92C25.8942 45.6149 25.4802 45.4623 24.9862 45.4623H21.303V50.9326H18.2954V35.6768ZM25.8361 42.8688C26.4464 42.8688 26.9258 42.709 27.2745 42.3894C27.6232 42.0552 27.7976 41.6266 27.7976 41.1035V39.6869C27.7976 39.2656 27.6668 38.9314 27.4053 38.6844C27.1438 38.4229 26.7951 38.2921 26.3592 38.2921H21.303V42.8688H25.8361ZM40.6523 51.107C39.5045 51.107 38.4874 50.8672 37.6011 50.3878C36.7294 49.8938 36.0465 49.2109 35.5525 48.3391C35.073 47.4528 34.8333 46.4285 34.8333 45.2662V41.3433C34.8333 40.1809 35.073 39.1639 35.5525 38.2921C36.0465 37.4058 36.7294 36.7229 37.6011 36.2435C38.4874 35.7495 39.5045 35.5025 40.6523 35.5025H42.9625C44.1103 35.5025 45.1201 35.7495 45.9918 36.2435C46.8781 36.7229 47.561 37.4058 48.0405 38.2921C48.5345 39.1639 48.7815 40.1809 48.7815 41.3433V45.2662C48.7815 46.4285 48.5345 47.4528 48.0405 48.3391C47.561 49.2109 46.8781 49.8938 45.9918 50.3878C45.1201 50.8672 44.1103 51.107 42.9625 51.107H40.6523ZM42.9625 48.4481C43.8052 48.4481 44.4808 48.143 44.9893 47.5328C45.5124 46.9225 45.7739 46.1234 45.7739 45.1354V41.474C45.7739 40.486 45.5124 39.6869 44.9893 39.0767C44.4808 38.4665 43.8052 38.1613 42.9625 38.1613H40.6523C39.8096 38.1613 39.1267 38.4665 38.6037 39.0767C38.0951 39.6869 37.8409 40.486 37.8409 41.474V45.1354C37.8409 46.1234 38.0951 46.9225 38.6037 47.5328C39.1267 48.143 39.8096 48.4481 40.6523 48.4481H42.9625ZM57.2949 51.107C56.3069 51.107 55.4351 50.8818 54.6796 50.4314C53.9386 49.9664 53.3575 49.3199 52.9361 48.4917C52.5293 47.649 52.3259 46.6828 52.3259 45.5931H55.2899C55.2899 46.4503 55.4715 47.1405 55.8347 47.6635C56.2125 48.1866 56.6992 48.4481 57.2949 48.4481H58.973C59.5687 48.4481 60.0482 48.1793 60.4114 47.6417C60.7892 47.0896 60.9781 46.3704 60.9781 45.4841V35.6768H63.9857V45.6149C63.9857 46.7046 63.7822 47.6635 63.3754 48.4917C62.9686 49.3199 62.3947 49.9664 61.6537 50.4314C60.9127 50.8818 60.0627 51.107 59.1038 51.107H57.2949ZM70.9264 50.9326C70.3016 50.9326 69.7931 50.7437 69.4008 50.366C69.0085 49.9882 68.8123 49.4942 68.8123 48.884V35.6768H80.4503V38.2921H71.8199V41.8227H79.7965V44.438H71.8199V48.3173H80.4503V50.9326H70.9264ZM89.8451 51.107C88.7263 51.107 87.7383 50.8672 86.8811 50.3878C86.0384 49.9083 85.3846 49.2327 84.9196 48.3609C84.4547 47.4746 84.2222 46.4576 84.2222 45.3098V41.2997C84.2222 40.1519 84.4547 39.1421 84.9196 38.2703C85.3991 37.384 86.0674 36.7011 86.9247 36.2217C87.7964 35.7422 88.799 35.5025 89.9323 35.5025H92.2424C93.3321 35.5025 94.291 35.7349 95.1192 36.1999C95.9474 36.6648 96.5867 37.3186 97.0371 38.1613C97.502 38.9895 97.7345 39.9557 97.7345 41.0599H94.7705C94.7705 40.1882 94.538 39.4908 94.0731 38.9677C93.6082 38.4301 92.9979 38.1613 92.2424 38.1613H89.9323C89.1186 38.1613 88.4648 38.4665 87.9708 39.0767C87.4768 39.6724 87.2298 40.457 87.2298 41.4304V45.179C87.2298 46.1525 87.4695 46.9443 87.949 47.5545C88.4285 48.1503 89.0605 48.4481 89.8451 48.4481H92.1988C92.9689 48.4481 93.5936 48.1503 94.0731 47.5545C94.5671 46.9588 94.8141 46.1743 94.8141 45.2008H97.7781C97.7781 46.3777 97.5456 47.4165 97.0807 48.3173C96.6157 49.2036 95.9619 49.8938 95.1192 50.3878C94.2765 50.8672 93.3031 51.107 92.1988 51.107H89.8451ZM105.444 38.2921H100.606V35.6768H113.29V38.2921H108.452V50.9326H105.444V38.2921Z" fill="white"/>
<path d="M201.819 19.6427C201.553 17.0107 201.202 14.4183 200.238 11.9369C199.325 9.58074 197.98 7.34668 196.62 5.22044C194.302 1.6006 189.444 -0.700056 186.193 0.192616C182.881 1.10114 180.248 3.76489 178.148 6.35095C173.078 12.5917 169.673 20.0027 165.774 26.9871C164.868 28.6123 164.4 29.4431 163.59 30.8733C163.452 30.8368 163.334 30.8035 163.239 30.775C158.782 29.4336 154.116 28.4727 149.5 29.0356C144.346 29.6635 139.362 31.452 135.244 34.6644C130.584 38.3017 127.545 43.5467 126.07 49.2246C125.102 52.9555 124.754 56.8448 124.805 60.6914C124.869 65.4481 125.322 70.4395 126.801 74.9789C127.819 78.1009 129.424 81.2229 132.059 83.2794C133.524 84.4226 135.446 85.3501 137.356 85.1599C137.574 85.1377 137.78 85.0933 137.978 85.0346C140.109 85.1694 142.088 83.9485 143.697 82.6832C145.904 80.9486 147.756 78.7795 149.472 76.5709C153.394 71.5208 156.697 66.0015 159.794 60.4187C160.78 58.6413 161.738 56.848 162.689 55.0516C163.101 55.1974 163.467 55.3068 164.21 55.5098C168.969 56.8226 174.038 57.0415 178.908 56.2598C184.204 55.4083 189.298 53.179 193.259 49.5227C197.996 45.1497 200.639 39.0342 201.608 32.7379C202.274 28.403 202.263 23.9999 201.822 19.6443H201.819V19.6427ZM168.421 26.1372C170.23 22.8725 171.928 19.5476 173.788 16.3115C175.979 12.4982 178.343 8.63733 181.451 5.49316C183.116 3.80929 185.305 2.06834 187.736 1.81941C187.337 2.16823 186.97 2.54401 186.647 2.89125C185.19 4.45779 183.962 6.25106 182.827 8.06019C180.076 12.4506 177.56 17.0012 174.958 21.482C172.887 25.0479 170.834 28.625 168.79 32.2052C168.307 32.0419 166.826 31.6819 165.48 31.3505C166.513 29.543 167.319 28.1239 168.419 26.1372H168.421ZM136.965 83.2794C136.806 83.281 136.651 83.2699 136.492 83.2588C136.461 83.2572 136.438 83.2556 136.421 83.254C136.416 83.2524 136.403 83.2493 136.38 83.2461C136.277 83.2286 136.174 83.2096 136.072 83.1874C134.062 82.7482 132.286 81.2292 131.04 79.4471C128.585 75.9382 127.677 71.5732 127.171 67.3968C126.66 63.1776 126.51 58.8918 126.99 54.6631C127.67 48.6633 129.815 42.6968 134.054 38.2874C137.493 34.7088 142.02 32.4446 146.841 31.3949C151.303 30.4246 155.743 31.1476 160.158 32.0958C162.112 32.5144 168.571 34.2204 169.654 34.5042C171.459 34.9308 174.73 35.2764 177.254 35.5888C181.922 36.1659 188.299 35.0513 186.926 34.7785C184.215 34.2394 177.395 33.7812 174.793 33.5148C176.609 30.2676 178.247 27.3597 180.175 24.0252C181.927 20.9921 183.699 17.9605 185.634 15.0367C186.26 14.0901 186.956 13.069 187.617 12.254C187.874 11.9369 188.14 11.6245 188.429 11.3344C188.543 11.2202 188.661 11.1124 188.781 11.0062C188.787 10.9998 188.792 10.9951 188.798 10.9903C188.854 10.9538 188.913 10.919 188.967 10.8809C188.987 10.8651 189.001 10.854 189.013 10.8444C189.027 10.8444 189.044 10.8444 189.066 10.8413C189.119 10.8349 189.174 10.8207 189.225 10.808H189.276C189.42 10.8111 189.563 10.808 189.707 10.8191C189.72 10.8191 189.729 10.8191 189.737 10.8207C189.75 10.8238 189.766 10.827 189.786 10.8302C189.891 10.8508 189.996 10.873 190.1 10.8999C190.966 11.1219 191.765 11.6356 192.477 12.3476C195.179 15.0462 195.878 19.3225 196.22 22.9534C196.833 29.4495 195.859 36.4117 191.546 41.56C188.212 45.5398 183.441 47.9514 178.389 48.9186C174.513 49.6606 170.143 49.648 166.51 48.2923C166.629 48.0862 166.748 47.8785 166.865 47.6724C168.467 44.8532 169.876 42.3322 171.405 39.5923C173.799 39.9237 176.258 40.1806 178.651 39.9459C179.607 39.8523 182.653 39.4575 183.48 38.9327C184.513 38.2795 176.385 38.9327 165.832 36.7605C165.44 36.6844 165.048 36.6051 164.657 36.5258C164.022 36.3974 163.391 36.2547 162.762 36.1088C162.803 36.0375 154.677 34.1839 151.427 34.2918C146.337 34.4614 141.363 36.2182 137.509 39.586C132.734 43.7592 130.388 49.8953 129.587 56.0552C129.048 60.1967 128.956 64.6537 129.928 68.7366C130.565 71.413 131.797 74.2147 133.997 75.9747C135.106 76.8626 136.784 77.7569 138.149 76.888C139.516 76.0175 140.501 74.3717 141.395 73.0715C145.127 67.6521 148.305 61.8299 151.533 56.106C154.961 50.0285 158.329 43.9193 161.769 37.8482C162.901 38.105 164.038 38.3445 165.178 38.5664C163.927 40.772 162.678 42.9775 161.432 45.1846C157.032 52.9888 152.648 60.8072 148.04 68.4908C146.267 71.4479 144.465 74.3907 142.54 77.2495C141.316 79.0681 140.134 80.8582 138.592 82.3994C138.466 82.5246 138.336 82.6451 138.205 82.7656C138.149 82.8164 138.092 82.8624 138.035 82.9115C138.026 82.9194 138.018 82.9274 138.01 82.9337C138.005 82.9369 138.002 82.9385 137.995 82.9432C137.9 83.0082 137.797 83.0669 137.702 83.1335C137.596 83.1478 137.502 83.1811 137.42 83.2271C137.375 83.2382 137.333 83.2477 137.306 83.2556C137.225 83.2604 137.027 83.2778 136.965 83.2794ZM155.489 45.1561C153.528 44.7993 151.828 44.6534 149.657 44.4093C148.026 44.2269 143.389 44.2364 142.635 44.9912C142.291 45.3352 149.04 46.0693 149.678 46.1803C150.772 46.3706 152.982 46.7939 154.414 47.0746C153.848 48.0894 153.282 49.1041 152.716 50.1189C150.973 49.8557 149.754 49.5481 147.71 49.5116C146.477 49.4894 141.56 50.0285 142.425 50.1458C144.38 50.4106 149.161 51.6632 151.685 51.9676C149.058 56.6673 146.41 61.3558 143.642 65.9714C142.256 68.2799 140.851 70.5885 139.286 72.7829C138.78 73.4917 138.392 74.026 137.797 74.6682C137.623 74.8553 137.442 75.0376 137.247 75.2025C137.276 75.1724 137.131 75.2754 137.073 75.323C137.069 75.3262 137.063 75.3294 137.057 75.3341H137.063C137.141 75.2897 137.112 75.3135 137.065 75.3341C137.084 75.3373 137.087 75.342 137.044 75.3436C137.047 75.342 137.05 75.3405 137.054 75.3389C137.049 75.3405 137.046 75.342 137.041 75.3452C137.02 75.3531 137.001 75.3563 136.99 75.3516C136.985 75.35 136.982 75.3484 136.979 75.3468C136.944 75.3484 136.909 75.3484 136.876 75.3436C136.797 75.3309 136.767 75.3278 136.79 75.3325C136.733 75.3214 136.675 75.3087 136.619 75.2913C136.24 75.1787 136.231 75.1803 135.823 74.9409C135.035 74.4763 134.339 73.766 133.779 72.9621C131.696 69.9749 131.227 66.1981 131.157 62.648C131.027 56.0188 132.161 48.8806 136.377 43.5356C139.491 39.5876 144.03 37.1331 148.979 36.4037C151.238 36.0708 153.589 36.093 155.844 36.4481C157.214 36.6638 158.551 37.0316 159.892 37.3836C158.419 39.9697 156.951 42.5573 155.495 45.1529L155.489 45.1561ZM151.696 70.1953C149.93 72.8638 148.061 75.48 145.936 77.8758C144.625 79.3535 143.187 80.8614 141.501 81.9475C142.949 80.1273 144.236 78.1707 145.497 76.2204C149.982 69.2757 154.059 62.0613 158.142 54.8756C161.156 49.5687 164.145 44.2475 167.148 38.9343C167.92 39.0707 168.695 39.1959 169.47 39.3133C166.054 45.4193 154.653 65.7335 151.699 70.1937H151.696V70.1953ZM200.013 30.2597C199.403 36.5036 197.25 42.7365 192.81 47.2997C189.228 50.9814 184.495 53.244 179.49 54.2302C174.885 55.1372 170.006 54.9977 165.484 53.8782C164.853 53.7213 164.227 53.5437 163.607 53.3455C164.238 52.2055 164.893 51.0781 165.548 49.9508C165.697 50.0111 165.846 50.0697 165.998 50.1252C166.919 50.4566 167.872 50.6992 168.836 50.8752C171.131 51.2938 173.48 51.3857 175.803 51.1844C181.082 50.7277 186.26 48.871 190.348 45.4462C195.231 41.3555 197.714 35.3224 198.199 29.0642C198.527 24.8085 198.195 20.1454 196.796 16.0974C195.84 13.329 194.155 10.4702 191.321 9.31596C189.813 8.70076 188.355 8.75784 187.161 9.91371C185.462 11.5564 184.186 13.7333 182.933 15.7153C179.715 20.8097 174.704 29.746 172.767 33.2326C172.337 33.1549 171.906 33.0677 171.476 32.9694C171.197 32.906 170.921 32.8362 170.647 32.7649C171.257 31.6946 171.868 30.6259 172.481 29.5573C174.649 25.782 176.846 22.0211 179.036 18.2585C180.549 15.6598 182.065 13.0626 183.593 10.4734C184.671 8.64685 185.816 6.83613 187.162 5.19507C187.968 4.21361 189.466 1.93832 190.798 2.40606C191.288 2.57731 192.334 2.79136 193.842 4.55292C196.817 8.02848 198.948 12.4538 199.598 17.0155C200.221 21.39 200.446 25.8582 200.016 30.2613H200.013V30.2597Z" fill="white"/>
<path d="M216.926 50.9326C216.301 50.9326 215.793 50.7437 215.401 50.366C215.008 49.9882 214.812 49.4942 214.812 48.884V35.6768H222.091C223.254 35.6768 224.271 35.8948 225.143 36.3306C226.029 36.7665 226.712 37.384 227.191 38.1831C227.685 38.9822 227.932 39.9049 227.932 40.951V45.2226C227.932 47.0969 227.445 48.5207 226.472 49.4942C225.499 50.4531 224.067 50.9326 222.179 50.9326H216.926ZM222.091 48.2738C223.021 48.2738 223.726 48.005 224.205 47.4674C224.685 46.9298 224.925 46.1379 224.925 45.0918V41.0817C224.925 40.2536 224.656 39.5925 224.118 39.0985C223.581 38.59 222.876 38.3357 222.004 38.3357H217.82V48.2738H222.091ZM240.998 47.3802H235.288L233.937 50.9326H230.799L236.77 35.6768H238.121C239.066 35.6768 239.705 36.1127 240.039 36.9845L245.466 50.9326H242.328L240.998 47.3802ZM236.095 44.8521H240.192L238.165 39.36H238.143L236.095 44.8521ZM253.379 51.107C251.781 51.107 250.531 50.6638 249.631 49.7775C248.73 48.8767 248.279 47.6272 248.279 46.029H251.243C251.243 46.7845 251.432 47.3802 251.81 47.8161C252.202 48.2374 252.74 48.4481 253.423 48.4481H255.842C256.481 48.4481 256.997 48.3173 257.389 48.0558C257.796 47.7798 257.999 47.4165 257.999 46.9661V46.2251C257.999 45.5132 257.476 45.07 256.43 44.8957L252.42 44.2201C251.112 44.0021 250.117 43.588 249.434 42.9778C248.766 42.353 248.432 41.5612 248.432 40.6023V39.3818C248.432 38.6117 248.635 37.9361 249.042 37.355C249.463 36.7593 250.052 36.3016 250.807 35.9819C251.577 35.6623 252.464 35.5025 253.466 35.5025H255.929C256.873 35.5025 257.709 35.6986 258.435 36.0909C259.162 36.4832 259.721 37.0353 260.113 37.7473C260.52 38.4447 260.724 39.2583 260.724 40.1882H257.76C257.76 39.5779 257.593 39.0912 257.258 38.728C256.924 38.3502 256.481 38.1613 255.929 38.1613H253.466C252.856 38.1613 252.362 38.2921 251.984 38.5536C251.621 38.8152 251.439 39.1639 251.439 39.5997V40.1882C251.439 40.9146 251.941 41.3651 252.943 41.5394L256.931 42.2368C258.254 42.4693 259.263 42.8834 259.961 43.4791C260.658 44.0602 261.007 44.8158 261.007 45.7456V47.1841C261.007 47.9541 260.789 48.637 260.353 49.2327C259.932 49.8284 259.336 50.2933 258.566 50.6275C257.796 50.9471 256.902 51.107 255.885 51.107H253.379ZM267.507 50.9326C266.882 50.9326 266.374 50.7437 265.981 50.366C265.589 49.9882 265.393 49.4942 265.393 48.884V35.6768H277.031V38.2921H268.401V41.8227H276.377V44.438H268.401V48.3173H277.031V50.9326H267.507ZM281.584 35.6768H284.592V50.9326H281.584V35.6768ZM289.806 35.6768H292.486L299.809 46.0508V35.6768H302.751V50.9326H300.071L292.748 40.5587V50.9326H289.806V35.6768Z" fill="white"/>
</svg>
