<svg width="142" height="156" viewBox="0 0 142 156" fill="none" xmlns="http://www.w3.org/2000/svg">
<path d="M140.959 35.9499C140.472 31.1328 139.83 26.3882 138.066 21.8468C136.394 17.5346 133.934 13.4458 131.444 9.5544C127.201 2.9294 118.31 -1.28124 112.361 0.352525C106.299 2.0153 101.479 6.89047 97.6369 11.6234C88.3567 23.0453 82.1263 36.6087 74.9906 49.3915C73.3307 52.3659 72.4746 53.8865 70.9918 56.504C70.7393 56.4373 70.5246 56.3763 70.3505 56.3241C62.1933 53.8691 53.653 52.1105 45.2056 53.1407C35.7716 54.2899 26.651 57.5632 19.1148 63.4424C10.5861 70.0993 5.02323 79.6988 2.32448 90.0904C0.551428 96.9186 -0.0840845 104.037 0.00877584 111.077C0.124851 119.782 0.95479 128.918 3.66225 137.226C5.52526 142.94 8.46197 148.653 13.2849 152.417C15.9662 154.509 19.4833 156.207 22.9801 155.859C23.3777 155.818 23.7549 155.737 24.1176 155.629C28.0178 155.876 31.6393 153.642 34.5847 151.326C38.6242 148.151 42.0136 144.182 45.1534 140.139C52.3327 130.897 58.3773 120.795 64.0447 110.578C65.8496 107.325 67.6024 104.043 69.3435 100.755C70.098 101.022 70.7683 101.222 72.1264 101.593C80.8379 103.996 90.1152 104.397 99.0269 102.966C108.719 101.408 118.043 97.3277 125.292 90.636C133.963 82.6326 138.8 71.44 140.573 59.9166C141.792 51.9829 141.772 43.9243 140.965 35.9528H140.959V35.9499ZM79.8338 47.8361C83.1449 41.8611 86.2528 35.7758 89.6567 29.8531C93.6671 22.8741 97.9938 15.808 103.682 10.0535C106.728 6.97172 110.736 3.78545 115.185 3.32986C114.453 3.96827 113.783 4.65602 113.191 5.29153C110.524 8.15859 108.278 11.4406 106.2 14.7517C101.166 22.787 96.5603 31.1154 91.7983 39.3161C88.0084 45.8425 84.2505 52.3891 80.51 58.9416C79.6249 58.6427 76.9145 57.984 74.4508 57.3775C76.3429 54.0693 77.817 51.4721 79.8309 47.8361H79.8338ZM22.2633 152.417C21.9731 152.42 21.6888 152.4 21.3986 152.379C21.3405 152.376 21.2999 152.374 21.268 152.371C21.2593 152.368 21.2361 152.362 21.1925 152.356C21.0039 152.324 20.8153 152.289 20.6296 152.249C16.95 151.445 13.6999 148.665 11.419 145.403C6.92687 138.981 5.26409 130.992 4.33839 123.349C3.40398 115.627 3.1283 107.783 4.00757 100.044C5.25248 89.0631 9.17873 78.1434 16.9355 70.0732C23.2297 63.5237 31.5145 59.3798 40.3392 57.4587C48.5051 55.6828 56.6304 57.006 64.7121 58.7413C68.2872 59.5074 80.1095 62.6299 82.0915 63.1493C85.3938 63.9299 91.3804 64.5625 96.0002 65.1342C104.543 66.1905 116.215 64.1505 113.702 63.6513C108.74 62.6647 96.2585 61.8261 91.4965 61.3385C94.8192 55.3955 97.8168 50.0734 101.345 43.9708C104.552 38.4195 107.796 32.871 111.337 27.52C112.483 25.7875 113.757 23.9187 114.967 22.4272C115.437 21.8468 115.925 21.2751 116.453 20.7441C116.662 20.5351 116.876 20.3378 117.097 20.1434C117.109 20.1318 117.117 20.1231 117.129 20.1144C117.23 20.0476 117.338 19.9838 117.436 19.9141C117.474 19.8851 117.5 19.8648 117.521 19.8474C117.547 19.8474 117.579 19.8474 117.619 19.8416C117.715 19.83 117.817 19.8039 117.909 19.7806H118.002C118.266 19.7864 118.528 19.7806 118.792 19.801C118.815 19.801 118.832 19.801 118.847 19.8039C118.87 19.8097 118.899 19.8155 118.937 19.8213C119.128 19.859 119.32 19.8996 119.511 19.949C121.096 20.3552 122.558 21.2954 123.861 22.5984C128.806 27.5374 130.086 35.3638 130.713 42.0091C131.833 53.8981 130.051 66.6403 122.158 76.0627C116.055 83.3464 107.323 87.7602 98.078 89.5303C90.9829 90.8884 82.9853 90.8652 76.3371 88.3841C76.5547 88.0069 76.7723 87.6267 76.9871 87.2495C79.918 82.0899 82.4978 77.4759 85.2952 72.4615C89.677 73.068 94.1778 73.5381 98.5568 73.1086C100.307 72.9374 105.881 72.2148 107.396 71.2543C109.285 70.0587 94.41 71.2543 75.095 67.2787C74.3783 67.1394 73.6615 66.9943 72.9448 66.8492C71.784 66.6142 70.629 66.353 69.477 66.086C69.5524 65.9554 54.6803 62.5631 48.7314 62.7605C39.4164 63.071 30.3132 66.2863 23.2587 72.4499C14.5211 80.0876 10.2263 91.3179 8.76086 102.592C7.77422 110.171 7.60591 118.329 9.38477 125.801C10.5513 130.699 12.8061 135.827 16.831 139.048C18.8623 140.673 21.9325 142.31 24.431 140.72C26.9325 139.126 28.7345 136.114 30.3712 133.735C37.2022 123.816 43.0176 113.16 48.9259 102.685C55.1997 91.5617 61.3633 80.3807 67.6604 69.2694C69.7324 69.7395 71.813 70.1777 73.8995 70.5839C71.6099 74.6205 69.3232 78.657 67.0423 82.6964C58.9896 96.9795 50.9659 111.289 42.533 125.351C39.2887 130.763 35.9892 136.149 32.4664 141.381C30.2261 144.71 28.0642 147.986 25.2407 150.807C25.0114 151.036 24.7735 151.256 24.5326 151.477C24.431 151.57 24.3266 151.654 24.2221 151.744C24.2047 151.758 24.1902 151.773 24.1757 151.784C24.167 151.79 24.1612 151.793 24.1496 151.802C23.9754 151.921 23.7868 152.028 23.6127 152.15C23.4183 152.176 23.2471 152.237 23.0962 152.321C23.0149 152.342 22.9366 152.359 22.8872 152.374C22.7392 152.382 22.3765 152.414 22.2633 152.417ZM56.1661 82.6442C52.5764 81.9913 49.4656 81.7243 45.4929 81.2774C42.5069 80.9437 34.0218 80.9611 32.6405 82.3424C32.0108 82.9721 44.3641 84.3157 45.5306 84.5188C47.5329 84.867 51.5782 85.6418 54.1986 86.1555C53.1626 88.0127 52.1266 89.8699 51.0907 91.7271C47.9015 91.2454 45.6699 90.6824 41.9294 90.6157C39.6717 90.575 30.673 91.5617 32.2574 91.7764C35.8354 92.261 44.5846 94.5535 49.2044 95.1107C44.396 103.712 39.5499 112.293 34.4832 120.74C31.9469 124.965 29.3759 129.19 26.5117 133.207C25.586 134.504 24.875 135.482 23.7868 136.657C23.4676 136.999 23.1368 137.333 22.7799 137.635C22.8321 137.58 22.568 137.768 22.4607 137.855C22.4549 137.861 22.4432 137.867 22.4316 137.876H22.4432C22.5854 137.795 22.5332 137.838 22.4462 137.876C22.481 137.882 22.4868 137.89 22.4084 137.893C22.4142 137.89 22.42 137.887 22.4258 137.884C22.4171 137.887 22.4113 137.89 22.4026 137.896C22.3649 137.911 22.3301 137.916 22.3098 137.908C22.3011 137.905 22.2953 137.902 22.2894 137.899C22.2256 137.902 22.1618 137.902 22.1008 137.893C21.9557 137.87 21.9006 137.864 21.9441 137.873C21.8397 137.853 21.7323 137.829 21.6307 137.797C20.9372 137.591 20.9198 137.594 20.174 137.156C18.7317 136.306 17.4578 135.006 16.4334 133.535C12.6204 128.067 11.7614 121.155 11.6337 114.658C11.3958 102.525 13.4706 89.4607 21.1867 79.6785C26.886 72.4528 35.1941 67.9606 44.2509 66.6258C48.3861 66.0164 52.6896 66.057 56.8161 66.707C59.3233 67.1017 61.7696 67.7749 64.2246 68.4191C61.5287 73.1521 58.8416 77.888 56.1777 82.6384L56.1661 82.6442ZM49.2247 128.471C45.992 133.355 42.5707 138.143 38.6822 142.527C36.2823 145.232 33.6503 147.992 30.5656 149.98C33.215 146.648 35.5714 143.067 37.8784 139.498C46.0878 126.788 53.5486 113.584 61.0209 100.433C66.5374 90.7201 72.0074 80.9814 77.5036 71.2572C78.9168 71.5067 80.3359 71.736 81.7549 71.9507C75.5013 83.1259 54.6368 120.305 49.2305 128.468H49.2247V128.471ZM137.654 55.381C136.537 66.8086 132.596 78.2159 124.471 86.5675C117.915 93.3057 109.253 97.4467 100.092 99.2517C91.6648 100.912 82.7357 100.656 74.4595 98.6074C73.3046 98.3202 72.1583 97.9952 71.0237 97.6324C72.1787 95.546 73.3771 93.4827 74.5756 91.4195C74.8484 91.5298 75.1212 91.6371 75.3997 91.7387C77.0857 92.3452 78.8298 92.7892 80.5941 93.1113C84.7932 93.8774 89.0937 94.0457 93.345 93.6771C103.005 92.8414 112.483 89.4433 119.964 83.1752C128.902 75.6884 133.446 64.6467 134.334 53.1929C134.935 45.4043 134.325 36.8698 131.766 29.4613C130.016 24.3946 126.931 19.1625 121.746 17.05C118.986 15.924 116.316 16.0285 114.131 18.144C111.023 21.1503 108.687 25.1346 106.395 28.762C100.504 38.0857 91.334 54.4408 87.7879 60.822C87.0015 60.6798 86.2122 60.5202 85.4258 60.3403C84.915 60.2242 84.4101 60.0965 83.9081 59.9659C85.0253 58.0072 86.1425 56.0513 87.2656 54.0954C91.2324 47.186 95.2544 40.3028 99.2619 33.4166C102.03 28.6604 104.805 23.9071 107.602 19.1683C109.575 15.8254 111.67 12.5114 114.134 9.50797C115.608 7.7117 118.351 3.5475 120.788 4.40356C121.685 4.71696 123.6 5.10871 126.36 8.33271C131.804 14.6936 135.704 22.7928 136.894 31.1415C138.034 39.1478 138.446 47.3253 137.66 55.3839H137.654V55.381Z" fill="#EEA044"/>
</svg>
